# xmcd
# 
# Track frame offsets:
#     150
#     21975
#     45248
#     74726
#     92323
#     114225
#     131281
#     156203
#     184227
#     202689
# 
# Disc length: 3021
# 
# Revision: 1
# Processed by: cddbd v1.5.2PL0 Copyright (c) Steve Scherf et al.
# Submitted via: fre:ac v1.0.17
# 
DISCID=770bcb0a
DTITLE=All Time Jazz and Lucia Luzinska - (un)covered
DYEAR=2008
DGENRE=Jazz
TTITLE0=Never will I marry
TTITLE1=Vienna Blues
TTITLE2=Invitation
TTITLE3=Paris
TTITLE4=I remember Augusta
TTITLE5=Augusta
TTITLE6=If I should loose you
TTITLE7=Flamenco Sketches
TTITLE8=Almost like being in love
TTITLE9=Stichnutie
EXTD=
EXTT0=
EXTT1=
EXTT2=
EXTT3=
EXTT4=
EXTT5=
EXTT6=
EXTT7=
EXTT8=
EXTT9=
PLAYORDER=
